<?xml version="1.0" encoding="UTF-8" standalone="no"?>
<!-- Created with Inkscape (http://www.inkscape.org/) -->

<svg
   xmlns:dc="http://purl.org/dc/elements/1.1/"
   xmlns:cc="http://creativecommons.org/ns#"
   xmlns:rdf="http://www.w3.org/1999/02/22-rdf-syntax-ns#"
   xmlns:svg="http://www.w3.org/2000/svg"
   xmlns="http://www.w3.org/2000/svg"
   xmlns:xlink="http://www.w3.org/1999/xlink"
   xmlns:sodipodi="http://sodipodi.sourceforge.net/DTD/sodipodi-0.dtd"
   xmlns:inkscape="http://www.inkscape.org/namespaces/inkscape"
   width="105.83333mm"
   height="105.83333mm"
   viewBox="0 0 105.83333 105.83333"
   version="1.1"
   id="svg8"
   inkscape:version="0.92.4 5da689c313, 2019-01-14"
   sodipodi:docname="drawing.svg">
  <defs
     id="defs2">
    <linearGradient
       inkscape:collect="always"
       id="linearGradient5163">
      <stop
         style="stop-color:#00daac;stop-opacity:1;"
         offset="0"
         id="stop5159" />
      <stop
         style="stop-color:#05ce89;stop-opacity:0.80000001"
         offset="1"
         id="stop5161" />
    </linearGradient>
    <linearGradient
       inkscape:collect="always"
       xlink:href="#linearGradient5163"
       id="linearGradient5165"
       x1="260"
       y1="175"
       x2="584.24878"
       y2="118.43146"
       gradientUnits="userSpaceOnUse" />
  </defs>
  <sodipodi:namedview
     id="base"
     pagecolor="#ffffff"
     bordercolor="#660066"
     borderopacity="0"
     inkscape:pageopacity="0.0"
     inkscape:pageshadow="2"
     inkscape:zoom="0.57323464"
     inkscape:cx="531.69243"
     inkscape:cy="82.748594"
     inkscape:document-units="mm"
     inkscape:current-layer="surface253763"
     showgrid="false"
     inkscape:window-width="1366"
     inkscape:window-height="692"
     inkscape:window-x="0"
     inkscape:window-y="0"
     inkscape:window-maximized="1"
     inkscape:pagecheckerboard="false" />
  <metadata
     id="metadata5">
    <rdf:RDF>
      <cc:Work
         rdf:about="">
        <dc:format>image/svg+xml</dc:format>
        <dc:type
           rdf:resource="http://purl.org/dc/dcmitype/StillImage" />
        <dc:title></dc:title>
      </cc:Work>
    </rdf:RDF>
  </metadata>
  <g
     inkscape:label="Layer 1"
     inkscape:groupmode="layer"
     id="layer1"
     transform="translate(-30.994048,-108.01191)">
    <g
       id="surface253763"
       transform="matrix(0.26458333,0,0,0.26458333,15.119048,102.72024)">
      <path
         id="path10"
         d="M 420,390 V 90 C 420,73.429688 406.57031,60 390,60 H 90 C 73.429688,60 60,73.429688 60,90 v 300 c 0,16.57031 13.429688,30 30,30 h 300 c 16.57031,0 30,-13.42969 30,-30 z m 0,0"
         style="fill:#199957;fill-opacity:1;fill-rule:nonzero;stroke:none"
         inkscape:connector-curvature="0" />
      <path
         id="path12"
         d="M 90,420 H 390 C 406.57031,420 240,260 240,260 240,260 73.429688,420 90,420 Z m 0,0"
         style="fill:#3d7af0;fill-opacity:1;fill-rule:nonzero;stroke:none"
         inkscape:connector-curvature="0" />
      <path
         id="path14"
         d="M 420,390 V 90 c 0,-16.570312 -160,150 -160,150 0,0 160,166.57031 160,150 z m 0,0"
         style="fill:#caccc7;fill-opacity:1;fill-rule:nonzero;stroke:none"
         inkscape:connector-curvature="0" />
      <path
         id="path16"
         d="m 390,420 c 16.57031,0 30,-13.42969 30,-30 v -2.44922 L 262.44922,230 230,262.44922 387.55078,420 Z m 0,0"
         style="fill:#eeeeee;fill-opacity:1;fill-rule:nonzero;stroke:none"
         inkscape:connector-curvature="0" />
      <path
         id="path18"
         d="M 420,90 C 420,73.429688 406.57031,60 390,60 h -2.44922 L 60,387.55078 V 390 c 0,16.57031 13.429688,30 30,30 h 2.449219 L 420,92.449219 Z m 0,0"
         style="fill:#ffd73a;fill-opacity:1;fill-rule:nonzero;stroke:none"
         inkscape:connector-curvature="0" />
      <path
         id="path20"
         d="m 360,20 c -55.23047,0 -100,44.769531 -100,100 0,68.12891 76.66016,92.94922 93.32812,198.51172 C 354.39844,325.30859 354.48047,330 360,330 c 5.51953,0 5.60156,-4.69141 6.67187,-11.48828 C 383.33984,212.94922 460,188.12891 460,120 460,64.769531 415.23047,20 360,20 Z m 0,0"
         style="fill:url(#linearGradient5165);fill-opacity:1;fill-rule:nonzero;stroke:none"
         inkscape:connector-curvature="0" />
      <path
         id="path20-5"
         d="m 359.56388,28.722432 c -49.90413,0 -90.35617,42.504286 -90.35617,94.940218 0,64.68173 69.26718,88.24619 84.32771,188.46745 0.96711,6.45296 1.04123,10.907 6.02846,10.907 4.98724,0 5.06136,-4.45404 6.02845,-10.907 15.06054,-100.22126 84.32773,-123.78572 84.32773,-188.46745 0,-52.435932 -40.45204,-94.940218 -90.35618,-94.940218 z m 0,0"
         style="opacity:0.98000004;fill:#32495e;fill-opacity:1;fill-rule:nonzero;stroke:none;stroke-width:0.92619836"
         inkscape:connector-curvature="0" />
      <path
         id="path22"
         d="m 358.91714,84.354271 c -19.32813,0 -35,15.671879 -35,34.999999 0,19.32812 15.67187,35 35,35 19.32812,0 35,-15.67188 35,-35 0,-19.32812 -15.67188,-34.999999 -35,-34.999999 z m 0,0"
         style="fill:#d7f4d7;fill-opacity:1;fill-rule:nonzero;stroke:none"
         inkscape:connector-curvature="0" />
      <g
         id="g54"
         transform="matrix(-0.43567728,0,0,-0.40896299,177.8194,146.32031)">
        <path
           id="path52"
           d="M 0,0 -22.669,-39.264 -45.338,0 h -75.491 L -22.669,-170.02 75.491,0 Z"
           inkscape:connector-curvature="0"
           style="fill:#41b883" />
      </g>
      <path
         id="path24"
         d="m 144.92969,125.30859 v 21.01172 h 29.9414 c -3.92187,12.73828 -14.55078,21.85156 -29.9414,21.85156 -18.32813,0 -33.17969,-14.85156 -33.17969,-33.18359 0,-18.32812 14.85938,-33.17969 33.17969,-33.17969 8.24218,0 15.76172,3.01954 21.55859,7.99219 l 15.48047,-15.47266 c -9.76953,-8.898434 -22.76953,-14.328124 -37.03906,-14.328124 -30.37891,0 -55.007814,24.628914 -55.007814,55.000004 0,30.37109 24.628904,55 55.007814,55 48.10157,0 56.3711,-43.17188 51.83985,-64.60937 z m 0,0"
         style="fill:#ffffff;fill-opacity:1;fill-rule:nonzero;stroke:none"
         inkscape:connector-curvature="0" />
      <g
         id="g58"
         transform="matrix(-0.43567728,0,0,-0.40896299,177.8194,146.32031)">
        <path
           id="path56"
           d="M 0,0 -22.669,-39.264 -45.338,0 H -81.565 L -22.669,-102.01 36.227,0 Z"
           inkscape:connector-curvature="0"
           style="fill:#34495e" />
      </g>
    </g>
  </g>
</svg>
