<?xml version="1.0" encoding="UTF-8" standalone="no"?>
<!-- Created with Inkscape (http://www.inkscape.org/) -->

<svg
   xmlns:dc="http://purl.org/dc/elements/1.1/"
   xmlns:cc="http://creativecommons.org/ns#"
   xmlns:rdf="http://www.w3.org/1999/02/22-rdf-syntax-ns#"
   xmlns:svg="http://www.w3.org/2000/svg"
   xmlns="http://www.w3.org/2000/svg"
   xmlns:sodipodi="http://sodipodi.sourceforge.net/DTD/sodipodi-0.dtd"
   xmlns:inkscape="http://www.inkscape.org/namespaces/inkscape"
   width="107.80324mm"
   height="95.25mm"
   viewBox="0 0 107.80324 95.25"
   version="1.1"
   id="svg8"
   sodipodi:docname="logo3.svg"
   inkscape:version="0.92.4 5da689c313, 2019-01-14">
  <defs
     id="defs2" />
  <sodipodi:namedview
     id="base"
     pagecolor="#ffffff"
     bordercolor="#660066"
     borderopacity="0"
     inkscape:pageopacity="0.0"
     inkscape:pageshadow="2"
     inkscape:zoom="0.4053381"
     inkscape:cx="306.77326"
     inkscape:cy="342.66024"
     inkscape:document-units="mm"
     inkscape:current-layer="surface253763"
     showgrid="false"
     inkscape:window-width="1366"
     inkscape:window-height="692"
     inkscape:window-x="0"
     inkscape:window-y="0"
     inkscape:window-maximized="1"
     inkscape:pagecheckerboard="false" />
  <metadata
     id="metadata5">
    <rdf:RDF>
      <cc:Work
         rdf:about="">
        <dc:format>image/svg+xml</dc:format>
        <dc:type
           rdf:resource="http://purl.org/dc/dcmitype/StillImage" />
        <dc:title></dc:title>
      </cc:Work>
    </rdf:RDF>
  </metadata>
  <g
     inkscape:label="Layer 1"
     inkscape:groupmode="layer"
     id="layer1"
     transform="translate(-30.994048,-118.59524)">
    <g
       id="surface253763"
       transform="matrix(0.26458333,0,0,0.26458333,15.119048,102.72024)">
      <path
         id="path10"
         d="M 420,390 V 90 C 420,73.429688 406.57031,60 390,60 H 90 C 73.429688,60 60,73.429688 60,90 v 300 c 0,16.57031 13.429688,30 30,30 h 300 c 16.57031,0 30,-13.42969 30,-30 z m 0,0"
         style="fill:#199957;fill-opacity:1;fill-rule:nonzero;stroke:none"
         inkscape:connector-curvature="0" />
      <path
         id="path12"
         d="M 90,420 H 390 C 406.57031,420 240,260 240,260 240,260 73.429688,420 90,420 Z m 0,0"
         style="fill:#3d7af0;fill-opacity:1;fill-rule:nonzero;stroke:none"
         inkscape:connector-curvature="0" />
      <path
         id="path14"
         d="M 420,390 V 90 c 0,-16.570312 -160,150 -160,150 0,0 160,166.57031 160,150 z m 0,0"
         style="fill:#caccc7;fill-opacity:1;fill-rule:nonzero;stroke:none"
         inkscape:connector-curvature="0" />
      <path
         id="path16"
         d="m 390,420 c 16.57031,0 30,-13.42969 30,-30 v -2.44922 L 262.44922,230 230,262.44922 387.55078,420 Z m 0,0"
         style="fill:#eeeeee;fill-opacity:1;fill-rule:nonzero;stroke:none"
         inkscape:connector-curvature="0" />
      <path
         id="path18"
         d="M 420,90 C 420,73.429688 406.57031,60 390,60 h -2.44922 L 60,387.55078 V 390 c 0,16.57031 13.429688,30 30,30 h 2.449219 L 420,92.449219 Z m 0,0"
         style="fill:#ffd73a;fill-opacity:1;fill-rule:nonzero;stroke:none"
         inkscape:connector-curvature="0" />
      <path
         id="path24"
         d="m 144.92969,125.30859 v 21.01172 h 29.9414 c -3.92187,12.73828 -14.55078,21.85156 -29.9414,21.85156 -18.32813,0 -33.17969,-14.85156 -33.17969,-33.18359 0,-18.32812 14.85938,-33.17969 33.17969,-33.17969 8.24218,0 15.76172,3.01954 21.55859,7.99219 L 181.96875,94.328125 C 172.19922,85.429688 159.19922,80 144.92969,80 c -30.37891,0 -55.007815,24.62891 -55.007815,55 0,30.37109 24.628905,55 55.007815,55 48.10156,0 56.37109,-43.17188 51.83984,-64.60937 z m 0,0"
         style="fill:#ffffff;fill-opacity:1;fill-rule:nonzero;stroke:none"
         inkscape:connector-curvature="0" />
    </g>
    <g
       transform="matrix(0.29046561,0,0,-0.35276896,65.14944,213.54671)"
       id="g5548">
      <g
         transform="translate(178.06,235.01)"
         id="g5542">
        <path
           style="fill:#41b883"
           inkscape:connector-curvature="0"
           d="M 0,0 -22.669,-39.264 -45.338,0 h -75.491 L -22.669,-170.02 75.491,0 Z"
           id="path5540" />
      </g>
      <g
         transform="translate(178.06,235.01)"
         id="g5546">
        <path
           style="fill:#34495e"
           inkscape:connector-curvature="0"
           d="M 0,0 -22.669,-39.264 -45.338,0 H -81.565 L -22.669,-102.01 36.227,0 Z"
           id="path5544" />
      </g>
    </g>
  </g>
</svg>
